<svg width="100" height="100" viewBox="0 0 100 100" fill="none" xmlns="http://www.w3.org/2000/svg">
<path d="M0 12.7387H3.99559C6.17482 12.7387 6.90156 13.4466 6.90156 15.5694V66.8804H22.523V40.6942H45.046V28.309H22.523V12.7387H49.7634V0H0V12.7387Z" fill="#E71C35"/>
<path d="M58.5876 66.3796C58.5876 53.641 67.3065 46.5637 78.5705 46.5637C86.1988 46.5637 92.3746 48.6865 98.9133 52.933V39.4855C92.199 35.2765 84.3716 33.0633 76.3873 33.1162C56.0445 33.1162 42.6033 46.9172 42.6033 66.7331C42.6033 86.549 56.7712 99.9965 77.4769 99.9965C85.5212 100.101 93.3972 97.75 99.9999 93.2728V79.4717C92.7345 84.0718 85.8319 86.1955 78.5665 86.1955C67.3055 85.842 58.5876 78.7648 58.5876 66.3796Z" fill="#E71C35"/>
</svg>
