<svg width="48" height="48" viewBox="0 0 48 48" fill="none" xmlns="http://www.w3.org/2000/svg">
<rect width="48" height="48" rx="24" fill="#EBF6E3"/>
<path d="M11.6068 28C10.6149 28 9.7633 27.6583 9.05197 26.9749C8.35066 26.2817 8 25.4519 8 24.4854C8 23.5286 8.35066 22.7085 9.05197 22.0251C9.7633 21.3417 10.6149 21 11.6068 21C12.5686 21 13.4101 21.3417 14.1315 22.0251C14.8528 22.7085 15.2135 23.5286 15.2135 24.4854C15.2135 25.1297 15.0432 25.7204 14.7025 26.2573C14.3719 26.7845 13.9361 27.2092 13.3951 27.5314C12.8541 27.8438 12.258 28 11.6068 28Z" fill="#7AC143"/>
<path d="M24 28C23.0081 28 22.1565 27.6583 21.4452 26.9749C20.7439 26.2817 20.3932 25.4519 20.3932 24.4854C20.3932 23.5286 20.7439 22.7085 21.4452 22.0251C22.1565 21.3417 23.0081 21 24 21C24.9618 21 25.8034 21.3417 26.5247 22.0251C27.2461 22.7085 27.6068 23.5286 27.6068 24.4854C27.6068 25.1297 27.4364 25.7204 27.0958 26.2573C26.7652 26.7845 26.3294 27.2092 25.7883 27.5314C25.2473 27.8438 24.6512 28 24 28Z" fill="#7AC143"/>
<path d="M36.3932 28C35.4014 28 34.5498 27.6583 33.8385 26.9749C33.1372 26.2817 32.7865 25.4519 32.7865 24.4854C32.7865 23.5286 33.1372 22.7085 33.8385 22.0251C34.5498 21.3417 35.4014 21 36.3932 21C37.355 21 38.1966 21.3417 38.918 22.0251C39.6393 22.7085 40 23.5286 40 24.4854C40 25.1297 39.8297 25.7204 39.489 26.2573C39.1584 26.7845 38.7226 27.2092 38.1816 27.5314C37.6406 27.8438 37.0445 28 36.3932 28Z" fill="#7AC143"/>
</svg>
